<svg xmlns="http://www.w3.org/2000/svg" viewBox="0 0 880 258" role="img" aria-label="Plateful">
  <g transform="translate(11.1,32.8) scale(0.5556)">
    <circle cx="176" cy="120" r="92" fill="#069494"/>
    <circle cx="176" cy="120" r="70" fill="none" stroke="#ffffff" stroke-width="8"/>
    <path fill="#B22222" d="M52,43.5 A3.5,3.5 0 0 1 59,43.5 L59,92 Q61,99 63,92 L63,43.5 A3.5,3.5 0 0 1 70,43.5 L70,92 Q72,99 74,92 L74,43.5 A3.5,3.5 0 0 1 81,43.5 L81,92 Q83,99 85,92 L85,43.5 A3.5,3.5 0 0 1 92,43.5 L92,104 C92,128 81,130 81,150 L81,296 Q81,310 72,310 Q63,310 63,296 L63,150 C63,130 52,128 52,104 Z"/>
  </g>
  <path fill="#069494" d="M216.93 49.599999999999994V205.0H181.02V49.599999999999994Z M283.49 86.14Q295.88 86.14 305.225 91.18Q314.57 96.22 319.61 104.41000000000001V87.82000000000001H355.52V205.0H319.61V188.41Q314.36 196.6 305.015 201.64Q295.66999999999996 206.68 283.28 206.68Q269.0 206.68 257.24 199.22500000000002Q245.48 191.77 238.65499999999997 178.015Q231.82999999999998 164.26 231.82999999999998 146.2Q231.82999999999998 128.14 238.65499999999997 114.49Q245.48 100.84 257.24 93.49000000000001Q269.0 86.14 283.49 86.14ZM293.99 117.43Q283.28 117.43 275.825 125.095Q268.37 132.76 268.37 146.2Q268.37 159.64 275.825 167.515Q283.28 175.39 293.99 175.39Q304.7 175.39 312.155 167.62Q319.61 159.85 319.61 146.41Q319.61 132.97 312.155 125.2Q304.7 117.43 293.99 117.43Z M442.86999999999995 174.55V205.0H424.59999999999997Q405.06999999999994 205.0 394.15 195.445Q383.22999999999996 185.89 383.22999999999996 164.26V117.64H368.95V87.82000000000001H383.22999999999996V59.26000000000002H419.14V87.82000000000001H442.65999999999997V117.64H419.14V164.68Q419.14 169.93 421.65999999999997 172.24Q424.17999999999995 174.55 430.05999999999995 174.55Z M568.65 155.02H487.37999999999994Q488.21999999999997 165.94 494.41499999999996 171.715Q500.60999999999996 177.49 509.63999999999993 177.49Q523.0799999999999 177.49 528.3299999999999 166.15H566.55Q563.6099999999999 177.7 555.9449999999999 186.94Q548.28 196.18 536.73 201.43Q525.18 206.68 510.9 206.68Q493.67999999999995 206.68 480.23999999999995 199.32999999999998Q466.79999999999995 191.98 459.23999999999995 178.32999999999998Q451.67999999999995 164.68 451.67999999999995 146.41Q451.67999999999995 128.14 459.135 114.49Q466.59 100.84 480.03 93.49000000000001Q493.46999999999997 86.14 510.9 86.14Q527.91 86.14 541.1399999999999 93.28Q554.3699999999999 100.42 561.8249999999999 113.65Q569.28 126.88000000000001 569.28 144.52Q569.28 149.56 568.65 155.02ZM532.53 135.07Q532.53 125.83 526.23 120.37Q519.93 114.91 510.47999999999996 114.91Q501.44999999999993 114.91 495.25499999999994 120.16Q489.05999999999995 125.41 487.59 135.07Z"/>
  <path fill="#B22222" d="M642.98 117.64H623.66V205.0H587.75V117.64H574.73V87.82000000000001H587.75V84.46000000000001Q587.75 62.83000000000001 600.14 51.59500000000001Q612.53 40.360000000000014 636.47 40.360000000000014Q640.4599999999999 40.360000000000014 642.3499999999999 40.56999999999999V71.02000000000001Q632.06 70.39000000000001 627.8599999999999 73.96000000000001Q623.66 77.53 623.66 86.77000000000001V87.82000000000001H642.98Z M771.49 87.82000000000001V205.0H735.5799999999999V189.04Q730.12 196.81 720.775 201.535Q711.43 206.26 700.09 206.26Q686.65 206.26 676.3599999999999 200.27499999999998Q666.0699999999999 194.29 660.4 182.95Q654.73 171.61 654.73 156.28V87.82000000000001H690.43V151.45Q690.43 163.21 696.52 169.72Q702.61 176.23 712.9 176.23Q723.4 176.23 729.49 169.72Q735.5799999999999 163.21 735.5799999999999 151.45V87.82000000000001Z M829.2299999999999 49.599999999999994V205.0H793.3199999999999V49.599999999999994Z"/>
</svg>
